<?xml version="1.0" encoding="UTF-8" standalone="no"?><!DOCTYPE svg PUBLIC "-//W3C//DTD SVG 1.1//EN" "http://www.w3.org/Graphics/SVG/1.1/DTD/svg11.dtd"><!-- Generated by graphviz version 2.40.1 (20161225.0304)
 --><!-- Title: KnowledgeGraph Pages: 1 --><svg xmlns="http://www.w3.org/2000/svg" xmlns:xlink="http://www.w3.org/1999/xlink" width="842pt" height="228pt" viewBox="0.00 0.00 841.51 228.12">
<g id="graph0" class="graph" transform="scale(1 1) rotate(0) translate(4 224.1203)">
<title>KnowledgeGraph</title>
<polygon fill="#ffffff" stroke="transparent" points="-4,4 -4,-224.1203 837.5121,-224.1203 837.5121,4 -4,4"/>
<!-- Gene -->
<g id="node1" class="node">
<title>Gene</title>
<ellipse fill="#337ab7" stroke="#000000" cx="40.8373" cy="-134.3203" rx="28.9265" ry="28.9265"/>
<text text-anchor="middle" x="40.8373" y="-130.7203" font-family="Helvetica Bold" font-size="12.00" fill="#ffffff">Gene</text>
</g>
<!-- Gene&#45;&gt;Gene -->
<g id="edge1" class="edge">
<title>Gene-&gt;Gene</title>
<path fill="none" stroke="#2e6da4" stroke-width="2" d="M25.4718,-158.9651C23.5748,-170.8192 28.6967,-181.2835 40.8373,-181.2835 50.0376,-181.2835 55.2072,-175.2741 56.346,-167.2044"/>
<polygon fill="#2e6da4" stroke="#2e6da4" stroke-width="2" points="59.1415,-166.9152 56.2028,-158.9651 53.5423,-167.0126 59.1415,-166.9152"/>
<text text-anchor="middle" x="40.8373" y="-185.4835" font-family="Helvetica Bold" font-size="14.00" fill="#000000">InteractsWith</text>
</g>
<!-- GOTerm -->
<g id="node2" class="node">
<title>GOTerm</title>
<ellipse fill="#5cb85c" stroke="#000000" cx="635.694" cy="-119.3203" rx="42.3033" ry="42.3033"/>
<text text-anchor="middle" x="635.694" y="-115.7203" font-family="Helvetica Bold" font-size="12.00" fill="#ffffff">GO Term</text>
</g>
<!-- Gene&#45;&gt;GOTerm -->
<g id="edge2" class="edge">
<title>Gene-&gt;GOTerm</title>
<path fill="none" stroke="#4cae4c" stroke-width="2" d="M69.609,-137.8712C75.6112,-138.4749 81.9053,-139.0073 87.8005,-139.3203 121.2905,-141.098 129.7234,-139.6254 163.2591,-139.3203 309.8169,-137.9869 346.4906,-138.2001 492.9732,-133.3203 529.6934,-132.097 539.0106,-133.2284 575.5426,-129.3203 578.9176,-128.9592 582.3907,-128.5318 585.8845,-128.0602"/>
<polygon fill="#4cae4c" stroke="#4cae4c" stroke-width="2" points="586.5164,-130.7983 594.0375,-126.8902 585.7209,-125.255 586.5164,-130.7983"/>
<text text-anchor="middle" x="323.2867" y="-141.5203" font-family="Helvetica Bold" font-size="14.00" fill="#000000">AssociatedWith</text>
</g>
<!-- Pathway -->
<g id="node3" class="node">
<title>Pathway</title>
<ellipse fill="#f0ad4e" stroke="#000000" cx="793.9045" cy="-80.3203" rx="39.7154" ry="39.7154"/>
<text text-anchor="middle" x="793.9045" y="-76.7203" font-family="Helvetica Bold" font-size="12.00" fill="#ffffff">Pathway</text>
</g>
<!-- Gene&#45;&gt;Pathway -->
<g id="edge3" class="edge">
<title>Gene-&gt;Pathway</title>
<path fill="none" stroke="#eb9316" stroke-width="2" d="M65.0796,-150.3237C98.3589,-170.707 160.7345,-203.3203 219.1583,-203.3203 219.1583,-203.3203 219.1583,-203.3203 635.694,-203.3203 691.0463,-203.3203 738.7043,-155.8138 766.8529,-119.8491"/>
<polygon fill="#eb9316" stroke="#eb9316" stroke-width="2" points="769.2403,-121.3366 771.8792,-113.282 764.7934,-117.933 769.2403,-121.3366"/>
<text text-anchor="middle" x="441.2446" y="-207.5203" font-family="Helvetica Bold" font-size="14.00" fill="#000000">ParticipatesIn</text>
</g>
<!-- Disease -->
<g id="node4" class="node">
<title>Disease</title>
<ellipse fill="#d9534f" stroke="#000000" cx="219.1583" cy="-78.3203" rx="37.7986" ry="37.7986"/>
<text text-anchor="middle" x="219.1583" y="-74.7203" font-family="Helvetica Bold" font-size="12.00" fill="#ffffff">Disease</text>
</g>
<!-- Gene&#45;&gt;Disease -->
<g id="edge4" class="edge">
<title>Gene-&gt;Disease</title>
<path fill="none" stroke="#c12e2a" stroke-width="2" d="M68.7,-125.5703C97.1749,-116.628 141.8169,-102.6086 175.0888,-92.1599"/>
<polygon fill="#c12e2a" stroke="#c12e2a" stroke-width="2" points="176.0639,-94.7886 182.8574,-89.7202 174.386,-89.4458 176.0639,-94.7886"/>
<text text-anchor="middle" x="125.5298" y="-122.5203" font-family="Helvetica Bold" font-size="14.00" fill="#000000">ImplicatedIn</text>
</g>
<!-- Drug -->
<g id="node5" class="node">
<title>Drug</title>
<ellipse fill="#9b59b6" stroke="#000000" cx="441.2446" cy="-49.3203" rx="26.6509" ry="26.6509"/>
<text text-anchor="middle" x="441.2446" y="-45.7203" font-family="Helvetica Bold" font-size="12.00" fill="#ffffff">Drug</text>
</g>
<!-- Gene&#45;&gt;Drug -->
<g id="edge5" class="edge">
<title>Gene-&gt;Drug</title>
<path fill="none" stroke="#8e44ad" stroke-width="2" d="M64.0953,-104.7408C89.3019,-75.3383 132.5123,-32.1547 181.2591,-14.5203 263.6934,15.3008 369.1588,-19.4033 416.4075,-38.4546"/>
<polygon fill="#8e44ad" stroke="#8e44ad" stroke-width="2" points="61.7022,-103.2357 58.6905,-111.1584 65.9855,-106.843 61.7022,-103.2357"/>
<text text-anchor="middle" x="219.1583" y="-19.5203" font-family="Helvetica Bold" font-size="14.00" fill="#000000">TargetedBy</text>
</g>
<!-- GOTerm&#45;&gt;Pathway -->
<g id="edge10" class="edge">
<title>GOTerm-&gt;Pathway</title>
<path fill="none" stroke="#2c3e50" stroke-width="2" d="M684.7189,-107.2353C707.4713,-101.6267 734.1248,-95.0564 755.4018,-89.8115"/>
<polygon fill="#2c3e50" stroke="#2c3e50" stroke-width="2" points="683.9463,-104.5419 676.849,-109.1753 685.2866,-109.9791 683.9463,-104.5419"/>
<text text-anchor="middle" x="716.0712" y="-108.5203" font-family="Helvetica Bold" font-size="14.00" fill="#000000">PartOf</text>
</g>
<!-- Disease&#45;&gt;GOTerm -->
<g id="edge8" class="edge">
<title>Disease-&gt;GOTerm</title>
<path fill="none" stroke="#3d9970" stroke-width="2" d="M264.0691,-89.3851C267.7734,-90.1084 271.4709,-90.7672 275.0574,-91.3203 389.413,-108.9536 525.9711,-115.7088 593.5353,-118.1102"/>
<polygon fill="#3d9970" stroke="#3d9970" stroke-width="2" points="264.3905,-86.5924 255.9893,-87.7147 263.2567,-92.0765 264.3905,-86.5924"/>
<text text-anchor="middle" x="441.2446" y="-116.5203" font-family="Helvetica Bold" font-size="14.00" fill="#000000">CharacterizedBy</text>
</g>
<!-- Disease&#45;&gt;Pathway -->
<g id="edge7" class="edge">
<title>Disease-&gt;Pathway</title>
<path fill="none" stroke="#a67c00" stroke-width="2" d="M260.3315,-57.4492C294.0638,-41.6321 343.5578,-21.3032 389.516,-13.3203 542.229,13.206 589.2959,-1.1717 736.297,-50.3203 744.1038,-52.9304 752.1426,-56.4914 759.6463,-60.2487"/>
<polygon fill="#a67c00" stroke="#a67c00" stroke-width="2" points="258.9809,-54.9909 252.9568,-60.9533 261.3843,-60.049 258.9809,-54.9909"/>
<text text-anchor="middle" x="543.2579" y="-9.5203" font-family="Helvetica Bold" font-size="14.00" fill="#000000">RelatedTo</text>
</g>
<!-- Disease&#45;&gt;Drug -->
<g id="edge6" class="edge">
<title>Disease-&gt;Drug</title>
<path fill="none" stroke="#b03a2e" stroke-width="2" d="M264.9914,-72.3354C310.1427,-66.4395 377.571,-57.6348 414.5697,-52.8035"/>
<polygon fill="#b03a2e" stroke="#b03a2e" stroke-width="2" points="264.4023,-69.5885 256.8322,-73.4008 265.1274,-75.1413 264.4023,-69.5885"/>
<text text-anchor="middle" x="323.2867" y="-74.5203" font-family="Helvetica Bold" font-size="14.00" fill="#000000">TreatedWith</text>
</g>
<!-- Drug&#45;&gt;GOTerm -->
<g id="edge11" class="edge">
<title>Drug-&gt;GOTerm</title>
<path fill="none" stroke="#16a085" stroke-width="2" d="M476.2461,-54.4926C503.9392,-59.3403 543.1963,-67.9135 575.5426,-81.5203 584.183,-85.1549 592.9945,-89.963 601.1141,-94.9274"/>
<polygon fill="#16a085" stroke="#16a085" stroke-width="2" points="476.3982,-51.6787 468.0434,-53.1063 475.4649,-57.2004 476.3982,-51.6787"/>
<text text-anchor="middle" x="543.2579" y="-85.5203" font-family="Helvetica Bold" font-size="14.00" fill="#000000">Influences</text>
</g>
<!-- Drug&#45;&gt;Pathway -->
<g id="edge9" class="edge">
<title>Drug-&gt;Pathway</title>
<path fill="none" stroke="#76448a" stroke-width="2" d="M476.5657,-47.0888C522.9625,-44.7417 606.8729,-42.5109 677.8454,-51.5203 704.3099,-54.8798 733.4485,-62.123 755.9086,-68.5046"/>
<polygon fill="#76448a" stroke="#76448a" stroke-width="2" points="476.1905,-44.3047 468.3506,-47.5257 476.488,-49.8968 476.1905,-44.3047"/>
<text text-anchor="middle" x="635.694" y="-55.5203" font-family="Helvetica Bold" font-size="14.00" fill="#000000">Affects</text>
</g>
</g>
</svg>